# xmcd
#
# Track frame offsets:
#	150
#	12450
#	26700
#	39900
#	54675
#	72375
#	83775
#	96525
#	110250
#	124950
#	139125
#	156675
#	170925
#	183375
#	198000
#	216300
#	233700
#	248625
#
# Disc length: 3513
#
# Revision: 2
# Processed by: cddbd v1.5.2PL0 Copyright (c) Steve Scherf et al.
# Submitted via: kJams 2 (development) 2.0patch18
#
DISCID=0b0db712
DTITLE=Various Artist - Pioneer – Country Karaoke #206
DYEAR=1994
DGENRE=Karaoke
TTITLE0=Patsy Cline - Walking After Midnight
TTITLE1=Lynn Anderson - Rocky Top
TTITLE2=Tammy Wynette - D.I.V.O.R.C.E
TTITLE3=Glen Campbell - Gentle On My Mind
TTITLE4=Dolly Parton and Kenny Rogers - Islands In The Stream [Duet]
TTITLE5=Conway Twitty - It's Only Make Believe
TTITLE6=Emylou Harris - Blue Kentucky Girl
TTITLE7=Charlie Rich - The Most Beautiful Girl In The World
TTITLE8=Ronnie Milsap - There's No Gettin¨ Over Me
TTITLE9=Johnny Cash - Folsom Prison Blues
TTITLE10=Ronnie Milsap - Any Day Now
TTITLE11=Glen Campbell - Southern Nights
TTITLE12=Sammi Smith - Help Me Make It Through The Night
TTITLE13=Glen Campbell - Rhinestone Cowboy
TTITLE14=Alabama - The Closer You Get
TTITLE15=BJ Thomas - Another Somebody Done Somebody Wrong Song
TTITLE16=Lynn Anderson - Rose Garden
TTITLE17=Bellamy Brothers, The - Your Love Flow
EXTD=
EXTT0=
EXTT1=
EXTT2=
EXTT3=
EXTT4=
EXTT5=
EXTT6=
EXTT7=
EXTT8=
EXTT9=
EXTT10=
EXTT11=
EXTT12=
EXTT13=
EXTT14=
EXTT15=
EXTT16=
EXTT17=
PLAYORDER=
